<?xml version="1.0" standalone="no"?>
<!DOCTYPE svg PUBLIC "-//W3C//DTD SVG 20010904//EN"
 "http://www.w3.org/TR/2001/REC-SVG-20010904/DTD/svg10.dtd">
<svg version="1.0" xmlns="http://www.w3.org/2000/svg"
 width="225.000000pt" height="225.000000pt" viewBox="0 0 225.000000 225.000000"
 preserveAspectRatio="xMidYMid meet">
<metadata>
Created by potrace 1.11, written by Peter Selinger 2001-2013
</metadata>
<g transform="translate(0.000000,225.000000) scale(0.100000,-0.100000)"
fill="#000000" stroke="none">
<path d="M970 2239 c-229 -30 -468 -149 -639 -320 -439 -439 -439 -1149 0
-1588 172 -172 387 -280 626 -316 124 -19 212 -19 336 0 509 77 897 486 950
1002 72 718 -550 1316 -1273 1222z m395 -188 c331 -88 595 -351 687 -686 32
-116 32 -364 0 -480 -76 -275 -261 -498 -517 -621 -148 -72 -223 -88 -410 -88
-187 0 -262 16 -410 88 -256 123 -441 346 -517 621 -32 116 -32 364 0 480 99
359 382 624 748 700 100 21 315 14 419 -14z"/>
<path d="M715 1691 c-11 -5 -29 -19 -40 -31 -19 -21 -20 -38 -23 -454 -2 -237
0 -451 3 -475 9 -57 42 -91 90 -91 l35 0 0 -49 c0 -34 6 -56 21 -75 l20 -26
353 0 353 0 21 23 c22 23 22 24 22 501 l0 477 -25 24 c-16 17 -35 25 -60 25
l-35 0 0 49 c0 38 -6 56 -24 78 l-24 28 -334 2 c-183 1 -342 -2 -353 -6z m665
-111 l0 -40 -274 0 c-255 0 -275 -1 -297 -19 l-24 -19 -5 -394 c-5 -385 -5
-393 -25 -393 -20 0 -20 8 -23 453 l-2 452 325 0 325 0 0 -40z m118 -567 l2
-453 -325 0 -325 0 0 448 c0 247 3 452 7 455 4 4 149 6 322 5 l316 -3 3 -452z"/>
<path d="M930 1260 c0 -19 7 -20 245 -20 238 0 245 1 245 20 0 19 -7 20 -245
20 -238 0 -245 -1 -245 -20z"/>
<path d="M930 1135 c0 -13 34 -15 245 -15 211 0 245 2 245 15 0 13 -34 15
-245 15 -211 0 -245 -2 -245 -15z"/>
<path d="M930 1010 c0 -19 7 -20 245 -20 238 0 245 1 245 20 0 19 -7 20 -245
20 -238 0 -245 -1 -245 -20z"/>
<path d="M930 890 c0 -19 7 -20 245 -20 238 0 245 1 245 20 0 19 -7 20 -245
20 -238 0 -245 -1 -245 -20z"/>
<path d="M930 765 c0 -13 34 -15 245 -15 211 0 245 2 245 15 0 13 -34 15 -245
15 -211 0 -245 -2 -245 -15z"/>
</g>
</svg>
